<?xml version="1.0" standalone="no"?>
<!DOCTYPE svg PUBLIC "-//W3C//DTD SVG 20010904//EN"
 "http://www.w3.org/TR/2001/REC-SVG-20010904/DTD/svg10.dtd">
<svg version="1.0" xmlns="http://www.w3.org/2000/svg"
 width="1903.000000pt" height="1903.000000pt" viewBox="0 0 1903.000000 1903.000000"
 preserveAspectRatio="xMidYMid meet">
<metadata>
Created by potrace 1.11, written by Peter Selinger 2001-2013
</metadata>
<g transform="translate(0.000000,1903.000000) scale(0.100000,-0.100000)"
fill="#000000" stroke="none">
<path d="M9317 18734 c-1 -1 -90 -5 -197 -9 -107 -3 -211 -8 -230 -10 -19 -2
-75 -6 -125 -10 -140 -10 -260 -22 -410 -40 -127 -15 -152 -18 -170 -22 -11
-2 -38 -6 -60 -9 -37 -4 -220 -33 -255 -39 -211 -39 -376 -71 -458 -91 -56
-13 -113 -26 -125 -28 -12 -2 -42 -9 -67 -16 -25 -7 -52 -13 -60 -15 -25 -5
-340 -92 -433 -119 -49 -15 -168 -53 -265 -86 -97 -33 -184 -62 -193 -64 -9
-3 -38 -13 -65 -24 -201 -80 -412 -163 -424 -167 -8 -2 -39 -15 -67 -29 -29
-14 -55 -26 -57 -26 -20 0 -541 -252 -681 -330 -30 -16 -81 -44 -112 -62 -478
-262 -1072 -666 -1458 -992 -161 -136 -262 -223 -286 -246 -15 -14 -68 -63
-119 -110 -237 -216 -585 -579 -781 -814 -13 -16 -29 -34 -34 -40 -6 -6 -28
-33 -50 -61 -22 -27 -42 -52 -45 -55 -37 -36 -303 -389 -406 -537 -127 -183
-272 -403 -329 -503 -11 -19 -50 -84 -86 -145 -261 -437 -544 -1042 -716
-1525 -109 -307 -241 -748 -288 -960 -2 -8 -10 -44 -19 -80 -20 -85 -67 -307
-90 -430 -10 -47 -45 -275 -51 -325 -4 -27 -8 -61 -11 -75 -2 -14 -9 -61 -14
-105 -6 -44 -12 -96 -15 -115 -5 -39 -12 -116 -20 -205 -3 -33 -8 -85 -10
-115 -13 -138 -28 -483 -28 -615 0 -103 11 -402 17 -465 2 -19 7 -82 11 -140
3 -58 8 -116 9 -130 2 -14 7 -61 11 -105 4 -44 9 -87 10 -96 2 -8 6 -42 9 -74
4 -32 9 -72 11 -89 3 -17 12 -76 20 -131 8 -55 19 -127 25 -160 6 -33 13 -76
16 -95 3 -19 12 -70 20 -113 9 -42 17 -87 20 -100 27 -145 100 -450 150 -630
38 -140 160 -529 181 -577 3 -8 7 -19 9 -25 5 -17 71 -195 107 -290 31 -79 86
-207 208 -485 34 -77 220 -447 279 -555 350 -639 823 -1299 1303 -1820 137
-148 458 -468 586 -585 57 -52 109 -100 115 -105 16 -15 230 -197 252 -215 11
-8 64 -52 119 -96 298 -240 693 -515 1053 -730 122 -74 224 -134 225 -134 2 0
53 -27 113 -61 539 -301 1290 -610 1929 -794 233 -67 747 -190 875 -209 19 -3
58 -10 85 -15 28 -5 68 -12 90 -15 23 -4 52 -9 65 -11 29 -6 342 -51 415 -59
97 -12 121 -14 190 -21 39 -4 84 -8 100 -10 17 -2 71 -6 120 -10 50 -4 113 -8
140 -10 296 -23 889 -23 1245 0 59 3 217 16 255 19 17 2 64 7 105 11 41 4 89
9 105 11 17 2 53 6 80 9 28 3 61 8 75 10 14 2 49 7 79 10 30 4 61 8 70 10 9 1
41 6 71 10 30 4 64 9 75 11 11 2 49 9 85 14 78 13 200 36 290 55 36 8 81 17
100 20 19 3 55 11 80 16 25 6 52 12 60 14 8 2 56 13 105 25 50 12 97 23 105
25 12 2 240 63 300 80 328 92 904 295 1142 404 24 11 108 49 188 84 261 116
632 308 900 465 143 84 440 271 485 305 6 4 81 57 167 117 205 143 410 298
578 438 94 78 161 134 174 146 6 6 29 26 51 45 113 95 251 227 450 426 312
312 475 494 718 800 65 83 124 157 131 166 42 51 276 384 352 500 105 160 91
137 200 319 48 80 94 156 102 170 69 110 306 573 402 785 81 178 197 466 279
691 34 94 164 495 176 544 2 8 22 85 44 170 40 151 85 337 95 393 3 15 7 35
10 45 3 9 7 28 10 42 12 64 27 137 31 160 3 14 13 66 21 115 8 50 17 101 19
115 8 40 23 141 30 190 3 25 8 56 10 70 2 14 7 52 10 85 4 33 8 71 10 85 4 28
13 119 20 195 2 28 7 79 10 115 14 153 29 473 29 620 0 114 -14 482 -19 509
-1 9 -6 57 -9 106 -10 128 -22 264 -31 330 -1 11 -6 47 -9 80 -7 65 -16 121
-47 320 -11 72 -22 144 -25 161 -3 27 -69 353 -79 394 -2 8 -13 56 -24 105
-25 113 -78 316 -90 347 -5 12 -8 25 -8 28 0 3 -3 16 -7 30 -4 14 -11 41 -16
60 -35 127 -171 535 -225 675 -310 798 -637 1414 -1106 2085 -122 174 -458
607 -529 681 -8 8 -37 41 -64 73 -54 63 -126 143 -226 251 -93 100 -412 416
-515 510 -49 44 -93 85 -99 90 -6 6 -43 37 -81 70 -39 33 -72 62 -75 65 -9 10
-175 146 -250 206 -77 61 -268 207 -374 284 -173 126 -563 379 -749 486 -38
21 -76 44 -85 49 -16 10 -111 62 -232 128 -30 17 -129 67 -220 113 -660 331
-1280 559 -2015 742 -110 28 -217 53 -239 56 -21 4 -41 8 -45 10 -3 2 -22 7
-41 10 -19 3 -46 8 -60 11 -14 3 -63 12 -110 21 -47 9 -92 18 -101 19 -9 2
-34 6 -55 9 -22 4 -64 10 -94 16 -30 5 -73 11 -95 14 -22 3 -50 7 -62 10 -12
2 -81 12 -155 21 -73 9 -144 18 -158 20 -24 3 -108 12 -210 20 -259 22 -273
23 -465 31 -139 6 -603 12 -608 8z"/>
</g>
</svg>
